<svg version="1.1" id="svg1" width="1920px" height="1200px" viewBox="0 0 1920 1200" xmlns="http://www.w3.org/2000/svg"><defs><clipPath id="clip_shp_1775999288217"><path d="M 542.7169799804688 446.11322021484375 L 1377.2830200195312 446.11322021484375 C 1419.949686686198 446.11322021484375 1441.2830200195312 467.44655354817706 1441.2830200195312 510.11322021484375 L 1441.2830200195312 689.8867797851562 C 1441.2830200195312 732.5534464518229 1419.949686686198 753.8867797851562 1377.2830200195312 753.8867797851562 L 542.7169799804688 753.8867797851562 C 500.05031331380206 753.8867797851562 478.71697998046875 732.5534464518229 478.71697998046875 689.8867797851562 L 478.71697998046875 510.11322021484375 C 478.71697998046875 467.44655354817706 500.05031331380206 446.11322021484375 542.7169799804688 446.11322021484375 Z"/></clipPath><path id="curve_txt_1775999486333" fill="none" d="M -1010.037841796875, 794.73583984375 Q 489.962158203125, 419.73583984375 1989.962158203125, 794.73583984375"/><clipPath id="clip_img_1775999946579"><path d="M 858.84912109375 171.056640625 L 1172.5849609375 171.056640625 C 1194.5849609375 171.056640625 1205.5849609375 182.056640625 1205.5849609375 204.056640625 L 1205.5849609375 388.056640625 C 1205.5849609375 410.056640625 1194.5849609375 421.056640625 1172.5849609375 421.056640625 L 858.84912109375 421.056640625 C 836.84912109375 421.056640625 825.84912109375 410.056640625 825.84912109375 388.056640625 L 825.84912109375 204.056640625 C 825.84912109375 182.056640625 836.84912109375 171.056640625 858.84912109375 171.056640625 Z"/></clipPath></defs><rect id="canvas-background" x="0" y="0" width="1920" height="1200" fill="#000000"/>
  <g id="g1"/>
<g id="guides-group" style="display: none;"/><rect id="shp_1775999288217" class="duzenlenebilir" x="478.71697998046875" y="446.11322021484375" width="962.5660400390625" height="307.7735595703125" data-solid-color="#10b981" fill="#10b981" data-mask-shape="squircle" clip-path="url(#clip_shp_1775999288217)" transform="rotate(0 960 600) translate(960 600) scale(1 1) translate(-960 -600)" style="mix-blend-mode: normal;" data-rx="64"/><text id="txt_1775999486333" class="duzenlenebilir" x="489.962158203125" y="669.73583984375" text-anchor="middle" dominant-baseline="central" data-base-font-size="333" data-max-width="600" data-raw-text="HOŞGELDİNİZ" data-solid-color="#000000" fill="#ffffff" font-size="92.33987558196135" font-family="sans-serif" style="font-size: 92.3399px; mix-blend-mode: normal; filter: drop-shadow(rgb(0, 0, 0) 0px 0px 15px);" transform="rotate(-4.618519323839607 489.962158203125 669.73583984375) translate(489.962158203125 669.73583984375) scale(1 1) translate(-489.962158203125 -669.73583984375)" stroke="#000000" paint-order="stroke fill" data-shadow-x="0" data-shadow-y="0" data-shadow-blur="15" stroke-width="17" data-shadow-color="#000000" letter-spacing="22" stroke-linejoin="round" data-curve="-100" data-angle="-4.618519323839607"><textPath href="#curve_txt_1775999486333" startOffset="50%" text-anchor="middle">HOŞGELDİNİZ</textPath></text></svg>